<?xml version="1.0" encoding="UTF-8"?>
<svg id="Layer_1" xmlns="http://www.w3.org/2000/svg" version="1.1" xmlns:xlink="http://www.w3.org/1999/xlink" viewBox="0 0 1000 750">
  <!-- Generator: Adobe Illustrator 29.3.1, SVG Export Plug-In . SVG Version: 2.1.0 Build 151)  -->
  <defs>
    <style>
      .st0 {
        stroke: url(#linear-gradient1);
      }

      .st0, .st1, .st2 {
        fill: none;
        stroke-linecap: square;
        stroke-width: 17.6px;
      }

      .st1 {
        stroke: url(#linear-gradient);
      }

      .st2 {
        stroke: url(#linear-gradient2);
      }
    </style>
    <linearGradient id="linear-gradient" x1="129.5" y1="481.6" x2="792" y2="481.6" gradientTransform="translate(0 -89.9)" gradientUnits="userSpaceOnUse">
      <stop offset="0" stop-color="#6a0dad"/>
      <stop offset=".5" stop-color="#ff007f"/>
      <stop offset="1" stop-color="#ff1493" stop-opacity=".7"/>
    </linearGradient>
    <linearGradient id="linear-gradient1" x1="734.7" y1="336.8" x2="857.6" y2="336.8" gradientTransform="translate(0 -89.9)" gradientUnits="userSpaceOnUse">
      <stop offset="1" stop-color="#00bfff"/>
      <stop offset="1" stop-color="#1da9f0"/>
      <stop offset="1" stop-color="#ff007f"/>
    </linearGradient>
    <linearGradient id="linear-gradient2" x1="525.5" y1="467.7" x2="864.2" y2="467.7" gradientTransform="translate(0 -89.9)" gradientUnits="userSpaceOnUse">
      <stop offset="0" stop-color="#ff007f"/>
      <stop offset=".5" stop-color="#00bfff"/>
      <stop offset="1" stop-color="#00bfff"/>
    </linearGradient>
  </defs>
  <path class="st1" d="M139.3,502s27.1-221.4,48.1-221.4,28,221.3,59.2,221.3,40-221.4,73.3-221.4,56.1,221.3,99.6,221.3,75.8-221.4,151.5-221.4,132.3,221.5,212.2,221.5"/>
  <line class="st0" x1="848.8" y1="246.9" x2="743.5" y2="246.9"/>
  <path class="st2" d="M743.4,253.6v103c30.6-15.5,64.6-16.4,86.8,0,40.4,29.8,27.9,107.5-7.2,133.4-5.2,3.9-10.6,6.3-15.4,7.9-1,.4-1.9.7-2.6.9h-.2c-.4.1-1.2.3-2.5.6-.4.1-.8.2-.8.2-1.9.4-5.1,1.2-5.3,1.3-3,.6-6.9,1.2-11.4,1.2s-7.3-.3-12.2-1.5c-8.2-2-13.9-5.5-18.2-8.2-5.4-3.4-9.3-6.7-12.3-9.4-10.8-9.8-18.9-19.8-25.4-28.5-8.8-11.6-14.6-20.6-21.3-31-1.9-2.9-7.8-12.6-19.6-31.8-9-14.6-13.4-22.3-21.6-35.2-3.8-6-6-9.2-6.6-10.2-5.4-8.1-11-16.5-18.8-26.4-5.2-6.6-9.4-11.8-16.1-18.2-4.5-4.3-8.5-7.6-11.5-9.9-2.5-2-6.3-4.6-11.2-6.8-1.3-.6-9.6-4.2-18.4-4.5-17.7-.6-31.2,12.6-33.7,15.1"/>
</svg>