<?xml version="1.0" encoding="UTF-8"?>
<svg id="Layer_1" xmlns="http://www.w3.org/2000/svg" version="1.1" viewBox="0 0 1000 750">
  <!-- Generator: Adobe Illustrator 29.3.1, SVG Export Plug-In . SVG Version: 2.1.0 Build 151)  -->
  <defs>
    <style>
      .st0 {
        stroke: #d4af37;
      }

      .st0, .st1 {
        fill: none;
        stroke-linecap: square;
        stroke-width: 17.6px;
      }

      .st1 {
        stroke: #231f20;
      }
    </style>
  </defs>
  <path class="st1" d="M182.4,487.7s27.1-221.4,48.1-221.4,28,221.3,59.2,221.3,40-221.4,73.3-221.4,56.1,221.3,99.6,221.3,75.8-221.4,151.5-221.4,132.3,221.5,212.2,221.5"/>
  <g>
    <line class="st0" x1="891.9" y1="232.6" x2="786.6" y2="232.6"/>
    <path class="st0" d="M786.5,239.3v103c30.6-15.5,64.6-16.4,86.8,0,40.4,29.8,27.9,107.5-7.2,133.4-5.2,3.9-10.6,6.3-15.4,7.9-1,.4-1.9.7-2.6.9h-.2c-.4.1-1.2.3-2.5.6-.4.1-.8.2-.8.2-1.9.4-5.1,1.2-5.3,1.3-3,.6-6.9,1.2-11.4,1.2s-7.3-.3-12.2-1.5c-8.2-2-13.9-5.5-18.2-8.2-5.4-3.4-9.3-6.7-12.3-9.4-10.8-9.8-18.9-19.8-25.4-28.5-8.8-11.6-14.6-20.6-21.3-31-1.9-2.9-7.8-12.6-19.6-31.8-9-14.6-13.4-22.3-21.6-35.2-3.8-6-6-9.2-6.6-10.2-5.4-8.1-11-16.5-18.8-26.4-5.2-6.6-9.4-11.8-16.1-18.2-4.5-4.3-8.5-7.6-11.5-9.9-2.5-2-6.3-4.6-11.2-6.8-1.3-.6-9.6-4.2-18.4-4.5-17.7-.6-31.2,12.6-33.7,15.1"/>
  </g>
</svg>